<?xml version="1.0" encoding="UTF-8" standalone="no"?>
<!DOCTYPE svg PUBLIC "-//W3C//DTD SVG 20010904//EN"
              "http://www.w3.org/TR/2001/REC-SVG-20010904/DTD/svg10.dtd">

<svg xmlns="http://www.w3.org/2000/svg"
     viewBox="0 0 500 500">

  <circle cx="82" cy="90" r="15" stroke="currentcolor" stroke-width="20" fill="none" />
  <circle cx="141" cy="69" r="15" stroke="currentcolor" stroke-width="20" fill="none" />
  <circle cx="183" cy="112" r="15" stroke="currentcolor" stroke-width="20" fill="none" />
  <circle cx="78" cy="151" r="15" stroke="currentcolor" stroke-width="20" fill="none" />
  <circle cx="425" cy="153" r="25" stroke="currentcolor" stroke-width="20" fill="none" />
  <circle cx="330" cy="200" r="25" stroke="currentcolor" stroke-width="20" fill="none" />
  <circle cx="380" cy="380" r="102" stroke="currentcolor" stroke-width="20" fill="none" />

  <circle cx="93" cy="379" r="6" stroke="currentcolor" stroke-width="20" fill="none" />
  <circle cx="141" cy="355" r="6" stroke="currentcolor" stroke-width="20" fill="none" />
  <circle cx="145" cy="405" r="6" stroke="currentcolor" stroke-width="20" fill="none" />
  <path id="lines"
        fill="none" stroke="currentcolor" stroke-width="20"
        d="M 223.00,120.00
           C 222.81,134.54 215.17,145.93 207.58,153.30
             200.00,160.67 191.56,163.54 181.33,166.67
             157.33,174.00 146.34,166.27 135.33,170.67
             112.00,180.00 159.33,218.67 123.00,220.00
             67.77,220.00 23.00,175.23 23.00,120.00
             23.00,64.77 67.77,20.00 123.00,20.00
             178.23,20.00 223.00,64.77 223.00,120.00 Z
           M 170.00,284.18
           C 172.96,318.82 184.64,471.23 184.73,471.82
             185.27,476.18 180.57,476.07 180.33,476.00
             180.09,475.93 22.00,375.33 22.00,375.33
             22.00,375.33 19.85,373.97 20.45,371.18
             23.34,357.78 36.85,316.74 68.85,294.67
             107.52,268.00 164.18,277.45 164.18,277.45
             164.18,277.45 169.52,278.50 170.00,284.18 Z
           M 44.00,389.45
           C 44.00,389.45 62.73,343.45 92.91,322.55
             123.09,301.64 171.45,306.91 171.45,306.91M 354.67,200.00
           C 354.67,200.00 353.75,83.00 353.75,83.00
             353.81,80.08 355.50,78.75 355.50,78.75
             355.50,78.75 443.79,24.61 444.00,24.50
             445.91,24.09 448.41,25.21 448.50,28.25
             448.50,28.63 449.33,152.00 449.33,152.00M 354.00,118.55
           C 354.00,118.55 448.91,58.91 448.91,58.91M 480.00,378.67
           C 480.00,378.67 280.00,378.00 280.00,378.00M 379.00,278.00
           C 379.00,278.00 378.67,480.00 378.67,480.00M 452.33,448.67
           C 439.00,435.33 416.67,414.67 416.33,378.33
             416.00,342.00 429.33,321.00 443.33,303.00M 312.00,306.00
           C 321.67,317.33 339.00,335.00 339.00,378.33
             339.00,421.67 315.67,436.00 305.67,446.33" />
</svg>
