<?xml version="1.0" encoding="UTF-8" standalone="no"?>
<!DOCTYPE svg PUBLIC "-//W3C//DTD SVG 20010904//EN"
              "http://www.w3.org/TR/2001/REC-SVG-20010904/DTD/svg10.dtd">

<svg xmlns="http://www.w3.org/2000/svg"
     width="6.94444in" height="6.94444in"
     viewBox="0 0 500 500">
  <path id="Sélection"
        fill="none" stroke="black" stroke-width="1"
        d="M 18.00,169.00
           C 17.54,162.57 15.00,159.52 13.41,153.72
             13.41,153.72 10.51,141.00 10.51,141.00
             10.51,141.00 10.00,111.00 10.00,111.00
             10.02,96.35 18.28,74.54 26.75,62.58
             26.75,62.58 33.03,53.11 33.03,53.11
             39.76,43.96 50.05,35.14 59.42,28.75
             59.42,28.75 71.75,22.25 71.75,22.25
             85.65,15.72 92.79,13.66 108.00,11.85
             108.00,11.85 121.00,10.57 121.00,10.57
             121.00,10.57 134.00,11.85 134.00,11.85
             141.50,12.74 148.75,13.64 156.00,15.83
             172.92,20.95 191.02,31.07 203.71,43.45
             209.05,48.66 212.14,53.44 216.41,59.35
             218.21,61.82 219.07,65.04 222.00,66.00
             222.00,66.00 225.00,78.00 225.00,78.00
             225.00,78.00 227.00,77.00 227.00,77.00
             227.53,84.79 231.98,94.08 232.00,104.00
             232.00,104.00 232.00,116.00 232.00,116.00
             231.94,125.95 226.68,140.23 221.25,148.54
             216.81,155.34 210.82,160.88 204.36,165.69
             201.68,167.68 197.12,168.75 196.00,172.00
             189.60,172.20 184.34,175.70 178.00,176.87
             178.00,176.87 152.00,176.87 152.00,176.87
             147.71,177.01 141.58,176.73 140.33,182.09
             139.06,187.58 144.43,190.93 146.42,196.43
             147.27,199.27 147.41,213.87 146.42,216.71
             146.12,218.02 142.63,223.49 141.70,224.71
             140.18,226.70 138.09,228.05 136.00,229.38
             123.34,237.43 108.80,232.00 95.00,232.00
             95.00,232.00 96.00,230.00 96.00,230.00
             83.29,229.88 76.26,223.15 68.00,222.00
             67.77,221.38 68.19,221.37 67.21,220.34
             67.21,220.34 52.57,210.94 52.57,210.94
             42.83,203.89 34.71,194.88 28.25,184.79
             28.25,184.79 19.67,169.81 19.67,169.81
             18.73,168.77 18.68,169.25 18.00,169.00 Z
           M 345.00,168.00
           C 345.00,168.00 345.00,83.00 345.00,83.00
             345.00,80.23 344.79,76.83 346.09,74.32
             348.21,70.21 359.95,64.09 364.44,61.31
             364.44,61.31 424.09,24.57 424.09,24.57
             429.90,20.78 444.35,10.30 451.00,11.28
             460.00,12.61 459.99,21.90 460.00,29.00
             460.00,29.00 460.00,146.00 460.00,146.00
             459.99,152.12 458.77,162.08 456.50,167.71
             455.72,169.65 454.40,170.84 453.15,172.46
             446.30,181.38 440.35,184.99 429.00,185.00
             429.00,185.00 430.00,187.00 430.00,187.00
             417.97,186.96 404.40,182.23 397.41,171.83
             391.87,163.59 392.98,157.32 393.00,148.00
             393.03,132.02 406.08,120.88 421.17,118.24
             428.20,117.00 433.49,118.93 440.00,121.00
             440.00,121.00 440.00,94.00 440.00,94.00
             440.00,94.00 439.00,77.00 439.00,77.00
             436.09,81.78 424.23,88.08 419.01,91.00
             419.01,91.00 384.80,111.83 384.80,111.83
             384.80,111.83 371.20,120.46 371.20,120.46
             369.44,121.57 367.11,122.48 366.01,124.30
             364.79,126.30 365.00,129.69 365.00,132.00
             365.00,132.00 365.00,201.00 365.00,201.00
             364.96,219.72 347.75,235.32 329.00,233.91
             316.56,232.97 306.82,227.04 300.91,216.02
             298.54,211.59 298.08,211.08 298.00,206.00
             298.00,206.00 298.00,193.00 298.00,193.00
             298.12,185.57 302.84,179.24 308.08,174.29
             313.62,169.06 324.41,164.72 332.00,165.02
             338.68,165.28 337.64,167.43 345.00,168.00 Z
           M 111.00,32.28
           C 78.34,37.10 53.13,53.59 38.87,84.00
             36.79,88.43 33.73,95.90 32.55,100.58
             30.18,109.99 29.86,119.32 30.00,129.00
             30.07,133.72 33.00,145.22 34.56,149.96
             44.69,180.72 68.09,203.53 100.00,210.37
             107.47,211.97 105.62,212.87 115.00,212.99
             119.44,213.04 126.87,212.97 127.58,207.00
             127.95,203.95 124.64,201.23 123.02,198.83
             121.13,196.02 119.27,191.15 118.46,187.83
             115.86,177.17 125.24,163.11 135.00,159.14
             138.20,157.84 140.65,158.01 144.00,158.00
             144.00,158.00 163.00,158.00 163.00,158.00
             172.60,157.98 169.00,157.26 176.00,155.39
             183.55,153.38 185.37,153.24 192.12,148.52
             199.23,143.55 207.46,133.26 209.57,124.71
             209.57,124.71 210.28,117.00 210.28,117.00
             210.66,113.87 211.10,112.31 210.91,109.00
             210.25,97.46 209.30,90.08 203.92,79.58
             186.41,45.45 148.28,28.82 111.00,32.28 Z
           M 440.00,40.00
           C 440.00,40.00 422.00,50.54 422.00,50.54
             422.00,50.54 365.00,85.00 365.00,85.00
             365.00,85.00 366.00,100.00 366.00,100.00
             366.00,100.00 392.00,83.01 392.00,83.01
             392.00,83.01 405.00,76.00 405.00,76.00
             405.00,76.00 430.04,59.57 430.04,59.57
             430.04,59.57 439.43,52.61 439.43,52.61
             439.43,52.61 440.00,40.00 440.00,40.00 Z
           M 128.42,43.71
           C 133.56,42.40 136.09,43.03 141.00,44.73
             151.88,48.51 159.84,57.03 160.00,69.00
             160.17,81.97 152.70,92.17 140.00,95.43
             137.00,96.20 135.23,97.14 132.00,96.73
             121.98,95.44 111.14,89.11 108.22,78.71
             107.81,76.33 107.96,68.82 108.22,66.00
             108.06,62.58 108.14,61.14 109.71,58.00
             114.46,48.51 119.50,47.51 128.42,43.71 Z
           M 138.00,65.24
           C 136.16,65.01 132.98,64.89 131.30,65.24
             125.83,67.42 126.75,73.64 132.17,74.71
             135.87,75.44 137.58,73.24 140.00,71.00
             140.00,71.00 138.00,65.24 138.00,65.24 Z
           M 53.00,77.00
           C 55.44,76.06 56.65,72.95 59.24,70.93
             65.28,66.21 70.52,64.90 78.00,65.00
             87.09,65.12 98.22,72.16 101.24,81.01
             102.33,84.23 102.06,92.29 102.00,96.00
             101.85,104.90 94.55,114.26 85.71,116.78
             83.33,117.19 75.83,117.04 73.00,116.78
             67.19,116.91 62.77,114.87 58.51,110.87
             54.23,106.84 53.01,103.46 51.29,98.00
             47.95,87.42 52.37,86.18 53.00,77.00 Z
           M 72.07,87.00
           C 72.07,87.00 72.07,92.91 72.07,92.91
             73.89,103.67 88.85,92.38 79.67,86.85
             78.74,86.30 78.05,86.04 76.96,85.97
             75.52,85.87 73.42,86.60 72.07,87.00 Z
           M 169.00,85.88
           C 181.03,82.54 194.70,87.65 200.58,99.00
             202.12,101.96 201.73,103.02 202.25,106.00
             202.25,106.00 203.29,111.00 203.29,111.00
             203.40,113.10 202.61,114.96 202.25,117.00
             200.73,125.66 197.72,130.42 189.83,134.91
             184.88,137.73 178.57,137.08 173.00,137.00
             162.09,136.83 156.70,130.30 152.58,121.09
             150.37,116.15 149.08,113.84 150.30,108.00
             150.73,105.89 151.79,103.99 152.59,102.00
             156.50,92.25 159.53,90.18 169.00,85.88 Z
           M 172.00,116.00
           C 173.41,116.52 175.71,117.59 177.16,117.45
             180.50,117.12 183.36,113.39 182.34,110.09
             181.44,107.16 178.56,106.02 176.00,105.00
             176.00,105.00 172.00,107.00 172.00,107.00
             172.00,107.00 172.00,116.00 172.00,116.00 Z
           M 73.00,123.71
           C 84.03,121.34 97.45,128.70 101.29,139.42
             102.36,142.42 102.01,149.53 102.00,153.00
             101.98,166.60 93.37,173.52 80.72,176.57
             76.41,177.61 73.79,176.77 69.83,175.36
             60.30,171.95 55.28,167.87 52.31,158.00
             51.25,154.51 50.51,152.79 50.76,149.00
             51.38,139.65 56.48,130.57 65.04,126.33
             67.29,125.21 70.52,124.45 73.00,123.71 Z
           M 414.00,160.00
           C 415.72,161.31 418.14,163.37 420.09,164.16
             426.03,166.58 435.08,164.32 437.44,157.83
             438.06,156.11 438.05,152.86 437.98,151.00
             437.63,141.91 432.03,139.74 424.01,140.02
             420.86,140.12 419.39,140.37 416.96,142.55
             408.89,149.80 413.20,154.86 414.00,160.00 Z
           M 74.31,145.60
           C 68.85,150.21 74.14,157.71 80.44,154.18
             83.31,152.57 83.53,148.27 81.13,146.29
             79.13,144.63 76.59,145.07 74.31,145.60 Z
           M 325.32,187.48
           C 309.29,195.75 320.17,216.26 334.00,212.50
             344.71,209.59 348.09,195.81 339.10,188.83
             335.79,186.27 329.25,186.73 325.32,187.48 Z
           M 137.00,263.00
           C 142.99,263.77 141.46,264.95 149.00,265.00
             162.55,265.09 179.76,268.02 180.00,285.00
             180.00,285.00 180.00,302.00 180.00,302.00
             180.00,302.00 182.00,301.00 182.00,301.00
             182.00,301.00 182.00,322.00 182.00,322.00
             182.00,322.00 185.06,342.00 185.06,342.00
             185.06,342.00 185.06,355.96 185.06,355.96
             185.06,355.96 186.94,363.09 186.94,363.09
             186.94,363.09 186.94,379.00 186.94,379.00
             186.94,379.00 189.86,395.00 189.86,395.00
             189.86,395.00 189.86,410.00 189.86,410.00
             189.86,410.00 192.00,424.00 192.00,424.00
             192.00,424.00 192.00,439.00 192.00,439.00
             192.00,439.00 195.00,460.00 195.00,460.00
             195.00,460.00 195.00,476.00 195.00,476.00
             195.00,476.00 197.00,475.00 197.00,475.00
             197.00,475.00 197.00,481.00 197.00,481.00
             197.00,481.00 195.00,480.00 195.00,480.00
             194.40,485.16 192.53,487.91 187.00,488.72
             180.35,489.69 165.77,478.78 160.00,475.08
             160.00,475.08 90.04,431.34 90.04,431.34
             82.41,426.49 64.78,414.05 57.00,412.00
             57.00,412.00 47.88,405.09 47.88,405.09
             47.88,405.09 41.44,401.17 41.44,401.17
             41.44,401.17 36.79,397.73 36.79,397.73
             36.79,397.73 27.88,392.54 27.88,392.54
             27.88,392.54 13.00,384.00 13.00,384.00
             11.33,376.90 9.64,377.40 10.04,369.00
             10.25,364.53 13.09,356.35 14.63,351.84
             22.62,328.33 38.30,307.22 57.62,291.81
             64.56,286.28 80.35,275.99 89.00,275.00
             89.00,275.00 88.00,273.00 88.00,273.00
             88.00,273.00 117.00,265.52 117.00,265.52
             117.00,265.52 138.00,265.00 138.00,265.00
             138.00,265.00 137.00,263.00 137.00,263.00 Z
           M 318.00,283.00
           C 318.00,283.00 338.42,273.69 338.42,273.69
             352.72,268.28 367.83,266.83 383.00,267.00
             433.53,267.59 479.36,307.21 487.75,357.00
             488.76,362.95 489.92,364.70 490.00,371.00
             490.00,371.00 490.00,383.00 490.00,383.00
             489.99,392.15 489.40,389.97 487.81,398.00
             487.81,398.00 486.58,405.72 486.58,405.72
             483.62,417.37 475.10,435.67 467.52,445.03
             461.70,452.21 457.80,457.02 450.47,462.87
             448.18,464.70 440.73,469.89 440.00,472.00
             440.00,472.00 420.58,481.31 420.58,481.31
             409.22,485.72 389.09,490.13 377.00,490.00
             369.51,489.91 351.25,486.51 344.00,484.06
             344.00,484.06 325.00,477.00 325.00,477.00
             323.95,474.30 320.62,473.21 318.20,471.76
             318.20,471.76 306.47,463.56 306.47,463.56
             296.31,454.99 284.88,440.44 278.78,428.59
             272.97,417.27 268.14,400.64 268.00,388.00
             268.00,388.00 267.18,378.00 267.18,378.00
             267.18,378.00 268.00,368.00 268.00,368.00
             268.10,359.02 270.62,347.90 273.70,339.42
             276.35,332.15 284.31,317.92 288.75,311.42
             294.08,303.63 301.20,297.18 308.37,291.20
             310.96,289.04 317.20,285.62 318.00,283.00 Z
           M 160.00,287.00
           C 160.00,287.00 151.91,285.06 151.91,285.06
             151.91,285.06 131.00,285.06 131.00,285.06
             122.40,285.02 125.63,285.53 119.01,286.76
             119.01,286.76 113.58,287.45 113.58,287.45
             113.58,287.45 107.00,289.64 107.00,289.64
             85.64,295.89 67.75,307.72 53.72,325.01
             44.53,336.34 39.26,345.33 34.31,359.00
             33.63,360.88 32.64,363.04 32.36,365.00
             31.47,371.17 35.64,372.36 40.00,375.00
             52.89,343.66 69.40,322.02 100.59,307.29
             108.75,303.43 123.12,298.15 132.00,298.00
             132.00,298.00 139.00,298.00 139.00,298.00
             139.00,298.00 147.00,297.30 147.00,297.30
             147.00,297.30 160.00,298.00 160.00,298.00
             160.00,298.00 160.00,287.00 160.00,287.00 Z
           M 368.00,287.00
           C 368.00,287.00 360.00,289.51 360.00,289.51
             360.00,289.51 353.00,290.71 353.00,290.71
             346.00,292.60 329.78,299.80 325.00,305.00
             335.39,317.71 343.80,333.82 346.93,350.09
             346.93,350.09 346.93,358.00 346.93,358.00
             347.67,362.58 348.88,361.96 349.00,368.00
             349.00,368.00 368.00,368.00 368.00,368.00
             368.00,368.00 368.00,287.00 368.00,287.00 Z
           M 430.00,303.00
           C 423.09,298.65 411.84,292.83 404.00,290.71
             404.00,290.71 397.00,289.55 397.00,289.55
             392.90,288.65 393.87,288.33 389.00,288.00
             389.00,288.00 389.00,368.00 389.00,368.00
             389.00,368.00 406.00,368.00 406.00,368.00
             406.00,368.00 408.26,351.00 408.26,351.00
             408.26,351.00 415.04,329.09 415.04,329.09
             415.04,329.09 430.00,303.00 430.00,303.00 Z
           M 172.89,458.00
           C 172.89,458.00 172.89,436.00 172.89,436.00
             171.74,429.65 170.02,432.78 170.00,422.00
             170.00,422.00 170.00,411.00 170.00,411.00
             169.98,401.37 168.79,403.90 168.06,398.00
             168.06,398.00 168.06,383.00 168.06,383.00
             167.98,372.22 166.26,375.35 165.11,369.00
             165.11,369.00 165.11,352.00 165.11,352.00
             164.95,342.31 163.02,346.94 163.00,336.00
             162.99,331.91 164.20,320.52 160.69,318.17
             158.59,316.78 154.48,317.00 152.00,317.00
             152.00,317.00 141.00,317.00 141.00,317.00
             133.01,317.11 134.51,318.61 129.00,319.73
             129.00,319.73 124.00,320.45 124.00,320.45
             100.93,325.57 81.72,341.54 69.35,361.17
             65.80,366.80 62.49,372.68 60.33,379.00
             59.64,381.03 58.18,384.49 59.11,386.53
             60.17,388.85 66.54,391.92 68.83,393.21
             68.83,393.21 88.00,405.42 88.00,405.42
             88.00,405.42 129.96,431.29 129.96,431.29
             129.96,431.29 172.89,458.00 172.89,458.00 Z
           M 468.00,368.00
           C 467.89,355.83 461.70,340.30 455.35,330.01
             452.22,324.96 450.19,321.24 445.00,318.00
             438.76,327.37 433.27,336.21 430.42,347.28
             430.42,347.28 429.59,351.97 429.59,351.97
             429.59,351.97 427.77,356.42 427.77,356.42
             426.63,359.51 427.00,364.61 427.00,368.00
             427.00,368.00 468.00,368.00 468.00,368.00 Z
           M 310.00,319.00
           C 302.52,325.32 295.16,339.63 292.17,349.00
             288.98,358.96 291.44,358.27 287.00,368.00
             287.00,368.00 328.00,368.00 328.00,368.00
             328.00,368.00 328.00,362.00 328.00,362.00
             327.95,353.53 326.81,356.29 325.41,350.97
             325.41,350.97 324.58,346.28 324.58,346.28
             322.34,337.59 315.76,325.83 310.00,319.00 Z
           M 139.91,341.09
           C 142.61,341.39 148.05,343.06 150.02,344.98
             155.74,350.59 155.39,361.94 147.94,365.98
             145.64,367.23 141.63,367.04 139.00,367.00
             129.09,366.85 127.87,361.54 128.00,353.00
             128.03,351.09 127.98,349.19 128.89,347.44
             130.89,343.59 136.00,342.04 139.91,341.09 Z
           M 90.17,365.68
           C 108.29,361.67 113.94,391.26 94.00,391.98
             84.91,392.31 80.01,388.42 80.01,379.00
             80.01,376.73 80.03,374.37 81.09,372.30
             82.78,369.00 86.93,367.13 90.17,365.68 Z
           M 328.00,387.00
           C 328.00,387.00 287.00,387.00 287.00,387.00
             287.00,387.00 289.59,394.00 289.59,394.00
             289.59,394.00 292.49,407.01 292.49,407.01
             292.49,407.01 305.00,432.00 305.00,432.00
             313.76,426.80 321.41,409.23 324.32,399.58
             324.32,399.58 325.69,393.09 325.69,393.09
             325.69,393.09 328.00,387.00 328.00,387.00 Z
           M 368.00,387.00
           C 368.00,387.00 347.00,387.00 347.00,387.00
             347.00,402.94 339.03,421.18 330.31,434.40
             330.31,434.40 320.00,448.00 320.00,448.00
             320.00,448.00 334.42,457.28 334.42,457.28
             343.49,462.45 357.64,466.60 368.00,468.00
             368.00,468.00 368.00,387.00 368.00,387.00 Z
           M 408.00,387.00
           C 408.00,387.00 389.00,387.00 389.00,387.00
             389.00,387.00 389.00,468.00 389.00,468.00
             403.70,465.31 425.77,459.50 435.00,447.00
             421.28,432.24 408.00,407.51 408.00,387.00 Z
           M 468.00,387.00
           C 468.00,387.00 427.00,387.00 427.00,387.00
             427.00,387.00 429.61,394.00 429.61,394.00
             429.61,394.00 432.41,404.72 432.41,404.72
             435.59,413.36 443.13,427.04 450.00,433.00
             459.54,423.01 467.88,400.74 468.00,387.00 Z
           M 141.43,390.84
           C 145.74,389.58 146.38,390.20 150.25,392.17
             152.04,393.09 153.65,393.66 154.97,395.29
             157.67,398.61 160.98,416.37 146.00,416.98
             143.54,417.08 140.28,417.08 138.02,416.07
             130.77,412.80 130.05,402.56 133.83,396.46
             135.46,393.83 138.76,392.27 141.43,390.84 Z" />
</svg>
