<?xml version="1.0" encoding="UTF-8" standalone="no"?>
<!DOCTYPE svg PUBLIC "-//W3C//DTD SVG 20010904//EN"
              "http://www.w3.org/TR/2001/REC-SVG-20010904/DTD/svg10.dtd">

<svg xmlns="http://www.w3.org/2000/svg"
     width="2.77778in" height="2.77778in"
     viewBox="0 0 200 200">
  <path id="Sélection"
        fill="none" stroke="black" stroke-width="1"
        d="M 5.00,178.00
           C 5.00,178.00 5.00,168.00 5.00,168.00
             5.02,156.61 14.42,136.45 21.44,127.46
             21.44,127.46 31.13,117.37 31.13,117.37
             34.91,113.66 41.95,108.85 46.58,106.16
             49.96,104.19 53.97,103.18 55.26,98.91
             57.22,92.39 48.61,88.82 44.19,81.91
             36.69,70.18 36.97,64.09 37.00,51.00
             37.03,36.66 46.80,22.72 59.04,15.63
             63.90,12.81 69.50,9.75 82.50,9.75
             95.50,9.75 101.99,13.34 106.91,16.26
             118.07,22.87 127.98,37.93 127.87,51.00
             127.87,51.00 127.87,65.83 127.87,65.83
             126.74,70.84 121.36,81.45 117.80,85.36
             112.59,91.08 101.79,95.46 106.50,103.25
             108.31,106.24 109.93,107.78 113.00,108.15
             123.77,109.46 124.52,106.33 127.45,97.28
             128.54,93.92 132.75,88.25 141.75,88.00
             150.75,87.75 155.95,95.77 156.68,98.00
             158.62,103.93 161.12,108.86 168.00,108.38
             171.80,108.11 185.25,106.25 187.75,116.75
             190.25,127.25 180.10,132.29 181.24,140.00
             182.14,146.07 193.47,154.96 187.50,165.75
             181.53,176.54 172.00,165.50 162.50,173.25
             153.00,181.00 162.25,186.50 144.25,188.75
             126.25,191.00 127.68,174.15 120.79,170.18
             115.73,167.25 103.50,174.75 97.56,164.27
             91.61,153.79 98.74,148.42 100.91,143.83
             104.49,136.30 94.75,132.50 93.00,125.00
             91.25,117.50 98.04,115.16 101.30,108.83
             102.51,106.62 102.95,104.54 101.30,102.72
             97.00,97.18 77.75,100.28 68.50,101.00
             59.25,101.72 46.02,110.90 37.54,118.63
             37.54,118.63 27.20,128.42 27.20,128.42
             22.53,133.68 14.74,147.36 12.68,154.00
             12.68,154.00 9.00,165.87 9.00,178.00
             9.00,178.00 5.00,178.00 5.00,178.00 Z
           M 70.01,15.52
           C 45.07,23.45 33.64,51.32 45.07,74.71
             46.69,78.04 51.18,82.96 53.87,85.54
             59.92,91.36 65.18,95.88 74.00,96.00
             74.00,96.00 90.00,96.00 90.00,96.00
             99.09,95.95 103.87,92.45 110.25,86.34
             117.44,79.45 118.51,77.82 121.75,69.28
             125.00,60.75 123.89,51.00 123.89,51.00
             123.94,46.78 121.79,40.09 119.93,36.29
             116.16,28.59 109.29,19.48 97.00,16.25
             84.71,13.02 74.13,14.83 70.01,15.52 Z
           M 181.00,126.75
           C 186.14,120.67 182.92,114.30 177.96,112.65
             172.06,110.68 166.42,114.16 159.19,109.17
             151.96,104.19 156.75,93.75 142.00,93.75
             127.25,93.75 130.27,107.15 123.95,110.55
             118.35,113.55 109.96,110.56 105.04,113.17
             101.44,115.09 99.63,118.96 100.24,122.96
             101.19,129.21 109.95,131.91 108.57,140.00
             107.27,147.54 96.36,153.30 102.43,161.77
             108.50,170.25 118.54,161.34 124.50,165.50
             130.46,169.66 133.75,185.66 145.00,183.96
             156.25,182.25 151.08,174.41 160.17,167.53
             166.59,162.68 177.25,170.00 182.50,163.00
             187.75,156.00 180.07,149.71 177.92,145.70
             175.97,142.06 175.86,132.83 181.00,126.75 Z
           M 142.00,121.75
           C 161.50,121.79 165.75,153.79 142.00,154.50
             118.25,155.21 122.50,121.71 142.00,121.75 Z
           M 141.50,128.00
           C 125.50,128.25 128.00,148.75 141.00,148.98
             154.00,149.22 157.50,127.75 141.50,128.00 Z
           M 236.50,32.50" />
</svg>
