<?xml version="1.0" encoding="UTF-8" standalone="no"?>
<!DOCTYPE svg PUBLIC "-//W3C//DTD SVG 20010904//EN"
              "http://www.w3.org/TR/2001/REC-SVG-20010904/DTD/svg10.dtd">

<svg xmlns="http://www.w3.org/2000/svg"
     viewBox="0 0 512 512">
  <path fill="none" stroke="currentColor" stroke-linecap="round" stroke-linejoin="round" stroke-width="32" 
        d="M 128.00,48.00
           C 128.00,48.00 128.00,80.00 128.00,80.00M 384.00,48.00
           C 384.00,48.00 384.00,80.00 384.00,80.00M 464.00,160.00
           C 464.00,160.00 48.00,160.00 48.00,160.00M 226.67,262.67
           C 226.67,262.67 270.09,230.67 270.09,230.67
             270.09,230.67 274.67,230.67 274.67,230.67
             274.67,230.67 274.67,398.67 274.67,398.67M 416.00,80.00
           C 442.51,80.00 464.00,101.49 464.00,128.00
             464.00,128.00 464.00,416.00 464.00,416.00
             464.00,442.51 442.51,464.00 416.00,464.00
             416.00,464.00 96.00,464.00 96.00,464.00
             69.49,464.00 48.00,442.51 48.00,416.00
             48.00,416.00 48.00,128.00 48.00,128.00
             48.00,101.49 69.49,80.00 96.00,80.00
             96.00,80.00 416.00,80.00 416.00,80.00 Z" />
</svg>
