<?xml version="1.0" standalone="no"?>
<!DOCTYPE svg PUBLIC "-//W3C//DTD SVG 20010904//EN"
 "http://www.w3.org/TR/2001/REC-SVG-20010904/DTD/svg10.dtd">
<svg version="1.0" xmlns="http://www.w3.org/2000/svg"
 width="512pt" height="512pt" viewBox="0 0 512 512"
 preserveAspectRatio="xMidYMid meet">

<g transform="translate(0,512) scale(0.1,-0.1)"
fill="none" stroke="currentcolor">
<path stroke-width="32" stroke="currentcolor" fill="none" d="M2315 5109 c-311 -31 -637 -126 -905 -262 -1135 -577 -1677 -1882
-1280 -3087 126 -384 333 -721 621 -1009 406 -405 901 -648 1494 -733 118 -17
512 -17 630 0 593 85 1088 328 1494 733 405 405 649 902 733 1494 17 118 17
512 0 630 -84 592 -328 1089 -733 1494 -396 396 -880 638 -1449 726 -125 19
-477 28 -605 14z m543 -425 c462 -63 882 -273 1217 -609 239 -238 405 -503
514 -818 79 -230 114 -444 114 -697 0 -253 -35 -467 -114 -697 -109 -315 -275
-580 -514 -818 -343 -343 -770 -553 -1255 -616 -122 -16 -398 -16 -520 0 -485
63 -912 273 -1255 616 -239 238 -405 503 -514 818 -79 230 -114 444 -114 697
0 253 35 467 114 697 109 315 275 580 514 818 379 380 844 588 1400 629 83 6
303 -4 413 -20z"/>
<path stroke-width="32" stroke="currentcolor" fill="none" d="M2711 3726 c-68 -38 -66 -138 3 -169 17 -8 61 -17 98 -21 268 -26
477 -155 575 -356 51 -103 69 -171 85 -315 10 -98 15 -113 39 -137 37 -38 86
-38 130 -1 l32 27 -6 111 c-14 270 -126 512 -305 661 -121 100 -308 177 -497
204 -92 13 -125 12 -154 -4z"/>
<path stroke-width="32" stroke="currentcolor" fill="none" d="M1690 3549 c-233 -41 -385 -242 -398 -525 -6 -143 9 -249 58 -395 88
-266 263 -534 510 -779 132 -132 242 -220 395 -318 386 -246 632 -306 938
-228 113 29 197 71 256 127 132 127 176 344 88 437 -12 13 -125 82 -252 155
-205 117 -235 132 -277 132 -63 0 -114 -37 -201 -145 -77 -97 -102 -119 -135
-120 -62 0 -334 191 -462 326 -130 137 -290 372 -290 427 0 33 41 77 147 159
84 64 115 108 120 166 4 45 -1 56 -147 302 -83 140 -157 261 -164 268 -17 18
-116 23 -186 11z"/>
<path stroke-width="32" stroke="currentcolor" fill="none" d="M2611 3277 c-55 -32 -66 -100 -23 -147 22 -24 42 -33 106 -46 200
-40 314 -158 346 -359 12 -77 43 -110 101 -110 34 0 46 6 70 33 20 22 29 43
29 66 0 52 -37 185 -71 254 -38 78 -132 180 -208 226 -112 69 -298 112 -350
83z"/>
</g>
</svg>
