<?xml version="1.0" encoding="UTF-8" standalone="no"?>
<!DOCTYPE svg PUBLIC "-//W3C//DTD SVG 20010904//EN"
              "http://www.w3.org/TR/2001/REC-SVG-20010904/DTD/svg10.dtd">

<svg xmlns="http://www.w3.org/2000/svg"
     viewBox="0 0 500 500" class="ionicon">
  <path stroke-width="20" stroke="currentColor" fill="none" 
        d="M 25.67,28.33
           C 25.67,28.33 125.33,75.67 125.33,75.67
             125.33,75.67 250.33,71.00 261.67,75.67
             273.00,80.33 305.67,119.67 311.33,130.67
             317.00,141.67 309.67,165.33 309.67,165.33
             309.67,165.33 313.55,178.23 311.33,188.67
             308.89,200.17 300.33,209.33 300.33,209.33
             300.33,209.33 314.33,225.00 314.33,225.00
             314.33,225.00 340.33,202.00 340.33,202.00
             340.33,202.00 357.67,195.67 370.33,206.67
             383.00,217.67 379.67,237.00 379.67,237.00
             379.67,237.00 314.33,305.00 314.33,305.00
             314.33,305.00 250.67,240.67 250.67,240.67
             250.67,240.67 189.04,238.17 185.33,236.33
             177.67,232.54 171.00,223.67 171.00,223.33
             171.00,223.00 130.00,216.33 118.33,209.00
             106.67,201.67 87.00,175.00 87.00,175.00
             87.00,175.00 25.67,147.33 25.67,147.33
             25.67,147.33 25.67,28.33 25.67,28.33 Z
           M 251.33,206.33
           C 251.33,206.33 250.75,240.75 250.75,240.75
             250.75,240.75 208.71,238.38 208.38,238.38
             203.71,233.38 200.33,224.33 203.67,214.33
             207.00,204.33 222.67,204.00 222.67,204.00
             222.67,204.00 302.67,211.67 302.67,211.67M 217.33,145.67
           C 217.33,145.67 310.00,165.67 310.00,165.67M 238.33,125.67
           C 238.33,125.67 247.33,152.33 247.33,152.67M 276.00,140.00
           C 276.00,140.00 272.00,157.67 272.00,157.67M 171.00,223.67
           C 171.00,223.67 203.75,214.50 203.75,214.50M 378.73,305.00
           C 364.13,307.60 348.83,314.40 338.23,323.00
             338.23,323.00 332.03,328.00 332.03,328.00
             332.03,328.00 291.23,328.00 291.23,328.00
             266.63,328.00 249.03,328.40 246.83,329.00
             238.03,331.50 228.23,340.90 225.83,349.30
             225.83,349.30 220.37,363.38 220.38,363.38
             220.38,363.37 255.09,380.49 255.38,380.31
             255.66,380.14 346.44,382.53 345.73,382.35
             344.96,382.15 255.39,380.08 255.37,380.17
             255.32,379.94 150.33,329.90 143.93,329.90
             131.43,329.80 120.73,336.80 114.93,348.90
             113.13,352.50 112.63,355.30 112.63,362.00
             112.53,372.50 114.93,378.60 121.83,385.20
             126.83,390.10 262.13,476.60 274.13,482.60
             285.83,488.50 295.13,490.30 310.43,489.70
             310.43,489.70 323.53,489.30 323.53,489.30
             323.53,489.30 386.33,472.60 386.33,472.60
             386.33,472.60 449.13,456.00 449.13,456.00
             449.13,456.00 470.13,456.00 470.13,456.00
             491.13,456.00 491.13,456.00 493.53,453.50
             493.53,453.50 496.03,451.10 496.03,451.10
             496.03,451.10 496.03,392.00 496.03,392.00
             496.03,392.00 496.03,332.90 496.03,332.90
             496.03,332.90 493.53,330.50 493.53,330.50
             491.13,328.00 491.03,328.00 471.63,328.00
             471.63,328.00 452.03,328.00 452.03,328.00
             452.03,328.00 445.83,323.00 445.83,323.00
             431.63,311.60 413.93,305.10 395.03,304.50
             388.73,304.30 381.33,304.50 378.73,305.00 Z" />
</svg>
