<?xml version="1.0" standalone="no"?>
<!DOCTYPE svg PUBLIC "-//W3C//DTD SVG 20010904//EN"
 "http://www.w3.org/TR/2001/REC-SVG-20010904/DTD/svg10.dtd">
<svg version="1.0" xmlns="http://www.w3.org/2000/svg"
 width="512.000000pt" height="512.000000pt" viewBox="0 0 512.000000 512.000000"
 preserveAspectRatio="xMidYMid meet">

<g transform="translate(0.000000,512.000000) scale(0.100000,-0.100000)"
fill="#000000" stroke="none">
<path d="M205 4928 c-45 -26 -44 -12 -45 -669 0 -583 1 -628 18 -648 9 -11
160 -85 334 -163 l317 -143 79 -95 c43 -52 106 -120 139 -151 142 -135 344
-225 548 -245 69 -7 71 -8 117 -59 30 -34 66 -60 100 -75 48 -21 63 -22 156
-16 81 5 109 3 132 -9 49 -26 105 -28 222 -10 l113 17 336 -338 c302 -302 340
-337 369 -337 28 0 66 34 355 323 376 376 380 381 380 530 0 72 -4 94 -28 145
-36 78 -104 146 -181 182 -52 24 -74 28 -146 28 -119 0 -177 -28 -292 -143
-81 -80 -89 -85 -104 -70 -15 15 -14 19 14 55 76 94 99 213 63 320 -21 62 -21
63 -2 145 29 129 32 163 21 236 -18 112 -54 171 -239 384 -93 107 -188 211
-212 232 -56 48 -132 83 -202 94 -33 5 -308 4 -674 -3 l-618 -12 -508 254
c-279 139 -515 253 -525 253 -9 0 -26 -6 -37 -12z m1675 -644 c387 8 650 9
675 4 76 -17 117 -53 290 -253 178 -205 198 -234 215 -310 15 -65 -5 -179 -29
-170 -9 4 -45 14 -81 22 -153 36 -140 29 -129 66 22 77 -6 137 -65 137 -49 0
-73 -23 -87 -85 -9 -41 -16 -54 -27 -50 -7 3 -31 8 -53 11 -21 4 -42 12 -47
18 -4 6 -25 56 -46 111 -21 55 -45 110 -53 123 -20 32 -55 44 -93 31 -57 -20
-63 -63 -24 -158 14 -35 23 -65 21 -67 -2 -3 -36 2 -76 11 -40 8 -86 15 -104
15 -41 0 -77 -34 -77 -75 0 -63 11 -67 445 -160 220 -48 416 -94 435 -104 64
-32 100 -111 86 -186 -9 -47 -57 -100 -109 -120 -41 -15 -56 -14 -370 24 -181
23 -343 41 -362 41 -22 0 -90 -28 -197 -80 -190 -94 -268 -115 -393 -106 -151
10 -297 66 -424 162 -38 28 -108 100 -168 174 l-104 125 -302 136 -302 137 -3
511 -2 511 462 -230 463 -230 635 14z m1750 -1278 c59 -39 85 -89 85 -166 0
-50 -5 -73 -22 -100 -12 -19 -142 -154 -288 -300 l-265 -265 -279 280 c-251
252 -279 285 -291 327 -14 52 -7 124 14 154 13 17 19 17 168 0 85 -9 166 -14
179 -11 20 5 36 -7 99 -70 108 -108 110 -108 265 44 80 78 134 123 156 130 54
16 136 6 179 -23z m-1297 -17 c89 -12 89 -12 83 -38 -3 -14 -9 -50 -12 -78 -4
-29 -7 -53 -8 -53 -1 0 -39 -7 -86 -15 -113 -20 -123 -19 -158 10 -60 50 -49
121 23 162 47 27 43 26 158 12z m-373 -150 c0 -15 -7 -19 -34 -19 -64 0 -73
12 -25 30 50 19 59 17 59 -11z"/>
<path d="M3787 2070 c-146 -26 -299 -94 -405 -180 l-62 -50 -408 0 c-246 0
-422 -4 -444 -10 -88 -25 -186 -119 -210 -203 -6 -23 -13 -44 -14 -45 -1 -2
-167 51 -368 118 -329 109 -373 121 -437 121 -125 1 -232 -69 -290 -190 -18
-36 -23 -64 -23 -131 -1 -105 23 -166 92 -232 50 -49 1403 -914 1523 -974 117
-59 210 -77 363 -71 l131 4 628 167 628 166 210 0 c210 0 210 0 234 25 l25 24
0 591 0 591 -25 24 c-24 25 -25 25 -219 25 l-196 0 -62 50 c-142 114 -319 179
-508 185 -63 2 -137 0 -163 -5z m271 -165 c78 -16 212 -74 268 -117 17 -12 55
-42 84 -65 l52 -43 169 0 169 0 0 -480 0 -480 -165 0 -164 0 -628 -166 c-580
-154 -636 -167 -734 -171 -112 -5 -171 3 -260 36 -30 12 -385 231 -789 488
-649 414 -737 473 -757 508 -40 71 -25 156 36 208 36 30 90 48 123 40 13 -3
199 -63 414 -134 373 -124 393 -131 404 -159 17 -40 101 -117 158 -143 46 -22
56 -22 500 -22 l454 0 24 28 c29 34 31 67 5 98 l-19 24 -444 5 c-424 5 -444 6
-478 26 -52 30 -82 88 -77 147 5 54 27 91 77 125 33 22 33 22 466 22 l432 0
49 40 c206 172 405 230 631 185z"/>
</g>
</svg>
