<?xml version="1.0" encoding="UTF-8" standalone="no"?>
<!DOCTYPE svg PUBLIC "-//W3C//DTD SVG 20010904//EN"
              "http://www.w3.org/TR/2001/REC-SVG-20010904/DTD/svg10.dtd">

<svg xmlns="http://www.w3.org/2000/svg"
     viewBox="0 0 500 500">
  <path fill="none" stroke="currentcolor" stroke-width="22" stroke-linecap="round" stroke-linejoin="round" 
        d="M 98.55,120.91
           C 100.39,119.11 102.88,119.22 105.09,120.09
             105.23,120.17 155.02,150.95 155.09,151.00
             156.44,152.12 156.68,152.68 156.34,153.98
             156.30,154.07 150.00,166.75 150.00,166.75
             150.00,166.75 206.88,170.00 206.88,170.00
             206.88,170.00 223.50,152.50 224.00,152.50
             235.09,145.09 327.27,159.45 369.27,162.18
             369.27,162.18 360.14,148.23 360.55,144.00
             360.55,144.00 406.87,114.57 407.00,114.50
             412.04,111.74 414.96,112.26 417.00,114.50
             417.00,114.50 489.45,223.27 489.50,223.00
             492.74,227.65 493.43,231.39 491.00,233.00
             491.00,233.00 445.69,259.56 442.50,261.50
             438.69,263.19 430.67,252.33 430.67,252.33
             430.67,252.33 372.67,281.33 372.67,281.33
             372.67,281.33 394.00,297.67 394.00,297.67
             394.00,297.67 404.17,312.00 396.33,324.00
             388.50,336.00 367.88,332.88 367.88,332.88
             367.88,332.88 366.62,346.25 360.00,353.00
             353.38,359.75 340.12,357.88 340.12,357.88
             340.12,357.88 338.50,371.75 332.75,377.88
             327.00,384.00 307.88,382.25 307.88,382.25
             307.88,382.25 302.75,394.38 297.50,397.50
             292.25,400.62 285.75,402.25 285.75,402.25
             285.75,402.25 241.25,374.75 240.75,374.75
             240.25,374.75 217.00,396.50 217.00,396.50
             217.00,396.50 209.25,398.00 202.50,392.50
             195.75,387.00 193.50,377.00 193.50,376.50
             193.50,376.00 181.75,380.75 173.00,375.00
             164.25,369.25 162.50,355.50 162.50,355.50
             162.50,355.50 150.25,357.75 141.00,351.50
             131.75,345.25 134.62,329.38 134.62,329.38
             134.62,329.38 123.25,329.75 114.50,322.00
             105.75,314.25 113.25,301.50 113.25,301.50
             113.25,301.50 86.00,274.50 86.00,274.50
             86.00,274.50 78.45,287.09 78.50,287.00
             77.27,288.64 75.36,290.18 71.00,289.00
             71.00,289.00 22.33,259.55 22.36,259.55
             20.33,258.16 18.94,255.91 20.00,253.73
             20.03,253.70 98.48,120.99 98.55,120.91 Z
           M 85.91,274.64
           C 85.91,274.64 149.94,166.75 149.94,166.75M 207.00,170.06
           C 207.50,170.56 155.33,233.00 155.33,233.00
             155.33,233.00 162.33,238.67 174.50,239.00
             186.67,239.33 195.33,234.00 201.00,230.50
             206.67,227.00 239.00,193.50 239.00,193.50
             239.00,193.50 373.00,282.33 373.00,282.33M 368.18,160.36
           C 368.18,160.36 430.69,252.25 430.69,252.25M 113.50,301.75
           C 113.50,301.75 138.50,279.50 138.50,279.50
             138.50,279.50 147.50,275.75 155.00,281.50
             162.50,287.25 165.00,298.75 165.00,298.75
             165.00,298.75 181.50,284.50 193.50,293.50
             205.50,302.50 200.00,317.00 200.00,317.00
             200.00,317.00 209.50,317.25 218.00,325.00
             226.50,332.75 222.75,347.50 222.75,347.50
             222.75,347.50 233.00,344.00 240.50,351.50
             248.00,359.00 240.88,375.00 240.88,375.00M 222.50,347.50
           C 222.50,347.50 193.62,376.50 193.62,376.50M 199.75,317.00
           C 199.75,317.00 162.75,354.75 162.75,354.75M 164.88,298.62
           C 164.88,298.62 134.75,329.38 134.75,329.38M 298.33,283.00
           C 298.33,283.00 367.38,332.88 367.38,332.88M 286.50,317.00
           C 286.50,317.00 340.12,357.88 340.12,357.88M 267.50,351.00
           C 267.50,351.00 308.00,382.38 308.00,382.38" />
</svg>
