<?xml version="1.0" standalone="no"?>
<!DOCTYPE svg PUBLIC "-//W3C//DTD SVG 20010904//EN"
 "http://www.w3.org/TR/2001/REC-SVG-20010904/DTD/svg10.dtd">
<svg version="1.0" xmlns="http://www.w3.org/2000/svg"
 width="512.000000pt" height="512.000000pt" viewBox="0 0 512.000000 512.000000"
 preserveAspectRatio="xMidYMid meet">

<g transform="translate(0.000000,512.000000) scale(0.100000,-0.100000)"
fill="#000000" stroke="none">
<path d="M3830 3909 c-157 -94 -293 -178 -302 -187 -22 -19 -23 -71 -3 -98 8
-10 15 -22 15 -26 1 -22 -220 -4 -550 46 -329 49 -668 59 -755 22 -62 -26
-106 -61 -150 -117 l-40 -51 -210 7 c-115 4 -211 8 -212 9 -1 1 7 21 18 44 35
69 30 73 -306 278 -332 203 -346 208 -388 152 -34 -46 -833 -1391 -841 -1416
-15 -45 16 -69 294 -239 151 -93 286 -176 300 -186 52 -36 97 -19 136 53 15
28 31 50 35 50 4 0 43 -38 86 -85 l78 -84 1 -73 c0 -81 16 -122 68 -176 34
-37 85 -66 133 -76 29 -7 33 -12 38 -50 10 -66 59 -142 112 -176 44 -28 141
-56 165 -48 7 3 22 -19 35 -50 44 -110 125 -166 240 -167 71 0 73 -1 85 -29
44 -108 168 -165 283 -131 47 13 71 30 138 94 l82 78 160 -105 c176 -115 213
-132 290 -132 96 0 214 79 240 161 5 15 16 19 58 19 129 2 245 91 276 214 11
43 11 43 69 55 94 18 172 82 210 171 17 40 19 42 69 45 249 17 368 320 195
498 -20 21 -52 48 -70 59 -19 11 -30 24 -25 29 4 4 96 53 203 108 173 90 195
99 204 83 21 -37 65 -72 91 -72 17 0 134 64 320 176 299 180 324 200 309 247
-8 26 -788 1182 -822 1220 -16 16 -36 27 -52 27 -16 0 -136 -66 -310 -171z
m645 -539 c276 -409 352 -527 342 -536 -16 -16 -396 -244 -405 -244 -4 1 -101
141 -217 313 -115 171 -276 409 -356 529 l-147 216 207 126 c113 69 209 124
213 123 4 -1 167 -238 363 -527z m-3205 327 c107 -66 197 -121 199 -123 2 -2
-39 -74 -90 -161 -473 -797 -650 -1088 -661 -1088 -18 0 -427 248 -428 259 0
5 167 290 371 633 354 594 372 622 392 611 12 -6 110 -65 217 -131z m1355
-167 c88 -6 237 -22 330 -36 264 -39 387 -52 551 -60 l152 -7 263 -390 c145
-214 265 -395 267 -401 3 -15 -444 -250 -463 -242 -7 2 -307 203 -666 445
-443 300 -660 441 -678 441 -20 0 -67 -43 -226 -205 -233 -238 -265 -260 -392
-260 -39 0 -74 3 -78 6 -8 9 550 676 578 690 58 31 118 34 362 19z m-741 -182
c28 -3 21 -12 -183 -255 -182 -218 -211 -258 -211 -286 0 -100 227 -178 386
-132 124 35 168 68 350 253 l171 175 614 -415 c338 -228 670 -452 738 -498 71
-48 131 -96 142 -114 40 -66 15 -167 -50 -201 -35 -18 -103 -20 -134 -3 -12 6
-180 125 -373 265 -374 269 -390 277 -434 233 -28 -28 -26 -81 3 -107 12 -11
171 -127 352 -258 182 -130 332 -239 334 -241 2 -2 -3 -20 -10 -41 -29 -75
-126 -106 -197 -63 -18 11 -131 94 -252 185 -121 91 -231 170 -244 176 -31 14
-83 -12 -92 -46 -14 -54 0 -68 256 -260 175 -131 250 -193 250 -206 0 -92
-106 -163 -186 -126 -18 9 -114 79 -213 157 -103 80 -193 143 -210 146 -39 8
-81 -31 -81 -76 0 -38 3 -41 204 -195 85 -66 155 -127 156 -135 1 -45 -72 -95
-124 -87 -18 3 -100 49 -184 104 -131 85 -151 101 -144 118 4 11 7 49 7 85 0
54 -6 74 -29 114 -30 52 -98 102 -151 112 -29 5 -33 10 -44 59 -23 101 -99
183 -188 201 -28 6 -31 10 -37 61 -13 111 -83 199 -180 228 -64 19 -99 18
-163 -4 l-52 -18 -28 44 c-47 75 -121 113 -218 113 -73 -1 -127 -30 -222 -122
l-83 -82 -51 50 c-28 27 -68 70 -89 95 l-39 46 98 164 c54 90 184 308 289 484
l190 320 163 -7 c90 -4 177 -9 193 -10z m-367 -1123 c15 -17 23 -39 23 -63 0
-34 -9 -47 -107 -144 -61 -60 -120 -110 -134 -113 -31 -8 -83 16 -99 44 -5 11
-10 37 -10 57 0 35 9 47 109 147 l110 110 43 -6 c29 -4 50 -14 65 -32z m366
-113 c29 -26 47 -75 39 -106 -7 -26 -307 -337 -344 -357 -36 -19 -88 -10 -119
20 -23 24 -29 38 -29 74 0 45 2 47 158 207 86 89 171 169 187 176 35 16 81 11
108 -14z m238 -301 c24 -24 29 -38 29 -76 0 -46 -1 -47 -132 -180 -83 -83
-143 -137 -160 -141 -79 -18 -153 55 -133 134 4 16 59 80 139 160 l133 132 47
0 c39 0 53 -5 77 -29z m230 -260 c17 -17 29 -40 29 -55 0 -46 -181 -238 -234
-248 -60 -12 -118 50 -97 105 5 12 56 68 114 125 117 115 138 123 188 73z"/>
</g>
</svg>
